<?xml version="1.0" encoding="utf-8"?>
<!-- Generator: Adobe Illustrator 24.0.0, SVG Export Plug-In . SVG Version: 6.00 Build 0)  -->
<svg version="1.1" xmlns="http://www.w3.org/2000/svg" xmlns:xlink="http://www.w3.org/1999/xlink" x="0px" y="0px"
	 viewBox="0 0 693 549" style="enable-background:new 0 0 693 549;" xml:space="preserve">
<style type="text/css">
	.st0{display:none;}
	.st1{display:inline;}
	.st2{fill:#FFFFFF;}
	.st3{fill:#FFFFFF;stroke:#1B1464;stroke-width:3;stroke-miterlimit:10;}
	.st4{display:inline;fill:#FFFFFF;stroke:#0000FF;stroke-width:2;stroke-miterlimit:10;}
	.st5{fill:#FFFFFF;stroke:#0000FF;stroke-miterlimit:10;}
	.st6{fill:none;stroke:#0000FF;stroke-miterlimit:10;}
	.st7{fill:#1B1464;stroke:#FFFFFF;stroke-width:2;stroke-miterlimit:10;}
	.st8{font-family:'Arial-Black';}
	.st9{font-size:249.0069px;}
	.st10{fill:#0071BC;stroke:#FFFFFF;stroke-width:5;stroke-miterlimit:10;}
	.st11{font-family:'DINAlternate-Bold';}
	.st12{font-size:309.7154px;}
	.st13{letter-spacing:0.78;}
	.st14{fill:#1B1464;stroke:#1B1464;stroke-width:3;stroke-miterlimit:10;}
	.st15{fill:#1B1464;stroke:#2E3192;stroke-width:5;stroke-miterlimit:10;}
	.st16{fill:#1B1464;}
	.st17{font-size:61.0422px;}
	.st18{font-size:38.6394px;}
</style>
<g id="Layer_1" class="st0">
	<g class="st1">
		<rect x="74.5" y="71.5" class="st2" width="511" height="413"/>
		<path d="M585,72v412H75V72H585 M586,71H74v414h512V71L586,71z"/>
	</g>
	<g class="st1">
		<rect x="100.5" y="96.5" class="st2" width="459" height="369"/>
		<path d="M559,97v368H101V97H559 M560,96H100v370h460V96L560,96z"/>
	</g>
</g>
<g id="Layer_3">
	<polygon class="st3" points="586.5,484.5 586.5,169.5 467.5,70.5 73.5,70.5 73.5,484.5 	"/>
</g>
<g id="Layer_4" class="st0">
	<polyline class="st4" points="99.5,95.5 99.5,465.5 560.5,465.5 560,169.5 467.5,169.5 467.18,96 99.5,95.5 99.5,95.5 	"/>
</g>
<g id="Layer_5">
	<rect x="99.5" y="95.5" class="st5" width="45" height="370"/>
	<rect x="144.5" y="95.5" class="st5" width="45" height="370"/>
	<rect x="234.5" y="95.5" class="st5" width="45" height="370"/>
	<rect x="189.5" y="95.5" class="st5" width="45" height="370"/>
	<rect x="279.5" y="95.5" class="st5" width="45" height="370"/>
	<rect x="324.5" y="95.5" class="st5" width="45" height="370"/>
	<rect x="369.5" y="95.5" class="st5" width="52" height="370"/>
	<rect x="421.5" y="95.5" class="st5" width="46" height="370"/>
	<rect x="467.5" y="169.5" class="st5" width="46" height="296"/>
	<rect x="511.5" y="169.5" class="st5" width="49" height="296"/>
</g>
<g id="Layer_6">
	<rect x="99.5" y="404.5" class="st6" width="461" height="34"/>
	<rect x="99.5" y="335.5" class="st6" width="461" height="34"/>
	<rect x="99.5" y="270.5" class="st6" width="461" height="32"/>
	<rect x="99.5" y="200.5" class="st6" width="461" height="34"/>
	<rect x="99.5" y="131.5" class="st6" width="374" height="38"/>
</g>
<g id="Layer_8">
	<text transform="matrix(0.9655 0 0 1 179.7275 392.6445)" class="st7 st8 st9">H</text>
	<text transform="matrix(1.2782 0 0 1 311.0005 434.0098)" class="st10 st11 st12 st13">9</text>
</g>
<g id="Layer_2">
	<polygon class="st14" points="467.18,71 586,169.42 467.5,169.5 	"/>
</g>
<g id="Layer_9">
	<path class="st15" d="M146.45,92.42l10.06,0.18l-0.14,68.08l-0.09,15.36c0,0,2.07,8.25,9.21,9.7c0,0,8.45,3.86,10.91-8.55
		l0.61-57.47l0.19-76.02c0,0,0.07-12.18-13.16-13.48c0,0-6.6-3.03-16.96,1.28c0,0-9.57,6.19-7,19.48l-0.09,15.89l-11.66,0.32
		l0.78-20.52c0,0-2.12-21.89,18.57-27.35c0,0,14.07-4.78,21.19-0.15c0,0,14.54,4.77,17.39,14.62c0,0,2.88,5.61,2.07,9.04l0.32,35.5
		l-0.26,44.5l-0.53,44.23l0.21,9.81c0,0-0.36,16.15-17.34,20.62c0,0-17.23,1.54-24.28-14.74l-0.99-11.14l0.2-33.37l0.16-26.49
		L146.45,92.42z"/>
</g>
<g id="Layer_10">
	<text transform="matrix(0.6144 0 0 1 205.7441 193.373)" class="st16 st8 st17">Corporativo</text>
	<text transform="matrix(0.6606 0 0 1 182 435.1523)" class="st16 st8 st18">S.A. DE C.V.</text>
</g>
<g id="Layer_11">
	<text transform="matrix(0.6606 0 0 1 5.2062 534.4768)" class="st16 st8 st18">“ARTÍCULOS DE OFICINA SOMOS LA SOLUCIÓN” </text>
</g>
</svg>
